<?xml version="1.0" standalone="no"?>
<svg version="1.0" xmlns="http://www.w3.org/2000/svg"
 width="40" height="40" viewBox="0 0 1600.000000 1600.000000"
 preserveAspectRatio="xMidYMid meet">

<g transform="translate(0.000000,1600.000000) scale(0.100000,-0.100000)"
fill="currentColor" stroke="none">
<path d="M7400 12939 c-326 -563 -593 -1028 -593 -1034 0 -6 660 -1158 1468
-2558 l1468 -2547 1194 0 1195 0 -30 53 c-221 390 -1241 2145 -1244 2142 -3
-3 -5 1 -5 8 0 16 -249 448 -255 442 -3 -3 -5 1 -5 8 0 16 -659 1158 -665
1152 -3 -3 -5 1 -5 8 0 11 -1905 3319 -1923 3340 -4 4 -274 -452 -600 -1014z"/>
<path d="M4350 7648 c-1135 -1965 -2065 -3576 -2067 -3580 -2 -5 531 -8 1185
-8 l1189 0 1468 2542 c808 1398 1468 2547 1468 2553 0 11 -1156 2038 -1173
2058 -4 4 -935 -1600 -2070 -3565z"/>
<path d="M6036 5098 l-596 -1033 2071 -3 c1139 -1 2999 -1 4135 0 l2064 3
-596 1033 -597 1032 -2942 0 -2942 0 -597 -1032z"/>
</g>
</svg>
